HIERARCHY
ROOT Hips
{
	OFFSET -3.958830 18.904000 13.208200
	CHANNELS 6 Xposition Yposition Zposition Zrotation Yrotation Xrotation 
	JOINT LHipJoint
	{
		OFFSET 0.000000 0.000000 0.000000
		CHANNELS 3 Zrotation Yrotation Xrotation
		JOINT LeftUpLeg
		{
			OFFSET 1.800000 -1.400000 0.085000
			CHANNELS 3 Zrotation Yrotation Xrotation
			JOINT LeftLeg
			{
				OFFSET 2.215000 -6.000000 0.000000
				CHANNELS 3 Zrotation Yrotation Xrotation
				JOINT LeftFoot
				{
					OFFSET 2.500000 -6.900000 0.000000
					CHANNELS 3 Zrotation Yrotation Xrotation
					JOINT LeftToeBase
					{
						OFFSET 0.200000 -0.500000 1.950000
						CHANNELS 3 Zrotation Yrotation Xrotation
						End Site
						{
							OFFSET 0.000000 0.000000 0.000000
						}
					}
				}
			}
		}
	}
	JOINT RHipJoint
	{
		OFFSET 0.000000 0.000000 0.000000
		CHANNELS 3 Zrotation Yrotation Xrotation
		JOINT RightUpLeg
		{
			OFFSET -1.800000 -1.400000 0.085000
			CHANNELS 3 Zrotation Yrotation Xrotation
			JOINT RightLeg
			{
				OFFSET -2.215000 -6.000000 0.000000
				CHANNELS 3 Zrotation Yrotation Xrotation
				JOINT RightFoot
				{
					OFFSET -2.500000 -6.900000 0.000000
					CHANNELS 3 Zrotation Yrotation Xrotation
					JOINT RightToeBase
					{
						OFFSET -0.200000 -0.500000 1.950000
						CHANNELS 3 Zrotation Yrotation Xrotation
						End Site
						{
							OFFSET 0.000000 0.000000 0.000000
						}
					}
				}
			}
		}
	}
	JOINT LowerBack
	{
		OFFSET 0.000000 0.000000 0.000000
		CHANNELS 3 Zrotation Yrotation Xrotation
		JOINT Spine
		{
			OFFSET -0.087000 1.940000 -0.288900
			CHANNELS 3 Zrotation Yrotation Xrotation
			JOINT Spine1
			{
				OFFSET 0.000000 1.950000 0.060000
				CHANNELS 3 Zrotation Yrotation Xrotation
				JOINT Neck
				{
					OFFSET 0.000000 0.000000 0.000000
					CHANNELS 3 Zrotation Yrotation Xrotation
					JOINT Neck1
					{
						OFFSET 0.000000 1.600000 0.340000
						CHANNELS 3 Zrotation Yrotation Xrotation
						JOINT Head
						{
							OFFSET 0.000000 1.667000 -0.240000
							CHANNELS 3 Zrotation Yrotation Xrotation
							End Site
							{
								OFFSET 0.000000 0.000000 0.000000
							}
						}
					}
				}
				JOINT LeftShoulder
				{
					OFFSET 0.000000 0.000000 0.000000
					CHANNELS 3 Zrotation Yrotation Xrotation
					JOINT LeftArm
					{
						OFFSET 2.700000 1.550000 -0.730000
						CHANNELS 3 Zrotation Yrotation Xrotation
						JOINT LeftForeArm
						{
							OFFSET 5.450000 0.000000 0.000000
							CHANNELS 3 Zrotation Yrotation Xrotation
							JOINT LeftHand
							{
								OFFSET 3.450000 0.000000 0.000000
								CHANNELS 3 Zrotation Yrotation Xrotation
								JOINT LeftHandIndex1
								{
									OFFSET 0.750000 0.000000 0.000000
									CHANNELS 3 Zrotation Yrotation Xrotation
									End Site
									{
										OFFSET 0.000000 0.000000 0.000000
									}
								}
							}
						}
					}
				}
				JOINT RightShoulder
				{
					OFFSET 0.000000 0.000000 0.000000
					CHANNELS 3 Zrotation Yrotation Xrotation
					JOINT RightArm
					{
						OFFSET -2.700000 1.550000 -0.730000
						CHANNELS 3 Zrotation Yrotation Xrotation
						JOINT RightForeArm
						{
							OFFSET -5.450000 0.000000 0.000000
							CHANNELS 3 Zrotation Yrotation Xrotation
							JOINT RightHand
							{
								OFFSET -3.450000 0.000000 0.000000
								CHANNELS 3 Zrotation Yrotation Xrotation
								JOINT RightHandIndex1
								{
									OFFSET -0.750000 0.000000 0.000000
									CHANNELS 3 Zrotation Yrotation Xrotation
									End Site
									{
										OFFSET 0.000000 0.000000 0.000000
									}
								}
							}
						}
					}
				}
			}
		}
	}
}
MOTION
Frames: 10
Frame Time: 0.016667
1.605960 16.339490 -0.572770 -22.359945 -18.712891 -1.576864 -15.023759 11.783977 0.652166 11.201048 -0.411824 -10.733649 4.424387 4.001403 16.754674 -0.960218 4.121361 3.442818 0.664250 0.038140 0.360460 19.008766 -7.169462 8.048463 -28.660158 21.195796 -79.440175 47.529550 -61.601770 79.636075 -4.569858 -19.778190 -0.642616 0.252200 0.449100 0.152520 -5.136495 -1.525703 -8.868024 30.397007 -9.591883 35.369686 -11.180137 0.244684 1.398394 2.521290 -9.539520 -7.254355 -16.043238 7.705693 22.593242 2.250750 -1.201610 -11.962180 -17.184697 5.976676 -0.060106 -19.611135 15.062646 -6.975177 85.390842 -61.745985 -51.838674 -3.605838 1.855150 0.692130 0.209380 -0.313360 0.421270 11.087587 0.495354 4.816987 12.534111 -12.113149 -6.254137 -127.301717 55.020131 -99.434572 1.603906 -1.624310 -0.439470 0.423050 -0.034220 -0.382440 
1.599990 16.270660 -0.513370 -21.444285 -20.448626 -1.784531 -15.016689 11.895635 0.671525 9.871977 -0.229794 -10.372003 4.999565 4.009843 17.951331 -0.938533 4.205283 3.427294 0.596460 -0.041310 0.315190 18.967810 -7.278611 7.912940 -28.009683 20.771397 -74.102475 42.616142 -62.837697 85.702414 -4.706675 -20.474798 -0.756648 0.208090 0.478760 0.129000 -5.139796 -1.648470 -8.793658 30.098071 -9.382757 34.574493 -11.335166 -0.314713 0.520411 2.267759 -10.157860 -7.208828 -17.779417 8.694476 23.513479 2.575830 -1.217400 -10.937620 -17.345312 6.010272 -0.512041 -19.146349 15.512656 -8.015825 74.098850 -63.322412 -43.947798 -3.575163 2.001599 0.700160 0.211600 -0.334690 0.404700 11.715691 0.485487 5.040867 13.431120 -14.835844 -7.118190 -129.294652 52.956223 -99.947480 1.618344 -1.677680 -0.469130 0.448410 0.005540 -0.380500 
1.585900 16.208320 -0.472550 -20.563186 -21.835997 -1.517745 -15.016172 12.048887 0.754021 9.028530 -0.189279 -11.009478 4.849997 4.270189 19.829580 -0.885764 4.325673 3.376177 0.575040 -0.048760 0.315200 18.903515 -7.429831 7.665659 -25.806348 20.495969 -67.525690 39.156664 -61.591485 88.256233 -4.694984 -20.556705 -0.779796 0.191270 0.473190 0.114050 -5.058128 -1.865998 -8.722906 29.072304 -8.986789 33.386567 -10.965856 -0.859451 -0.297337 2.268796 -10.126963 -7.005997 -18.154253 9.589830 24.552222 1.774700 -0.164000 -9.879150 -18.341750 5.821421 -0.869774 -18.502109 15.962959 -8.523564 63.486628 -63.332925 -36.732758 -3.607887 2.274599 0.680150 0.217700 -0.332570 0.395360 12.705309 0.405066 5.042651 13.367078 -15.699232 -7.338542 -130.382635 53.002029 -102.073221 1.655390 -1.696719 -0.462610 0.445350 -0.000340 -0.377920 
1.573820 16.152850 -0.425030 -18.833707 -23.539088 -0.932048 -14.998812 12.152000 0.904483 7.328800 -0.305573 -12.089123 4.610721 4.536523 22.247092 -0.869150 4.508882 3.299623 0.546070 -0.070070 0.296150 18.862275 -7.675899 7.349308 -23.556894 19.635834 -60.076051 35.501079 -57.782155 88.785748 -4.525456 -20.145824 -0.747503 0.184500 0.493670 0.106660 -5.030783 -1.935217 -8.631217 27.259746 -8.009739 30.994922 -10.557485 -1.251879 -0.908464 1.979831 -9.893362 -6.495198 -18.156192 10.670330 26.111878 1.528390 0.913140 -8.921080 -19.260110 6.318207 -1.334095 -18.752700 15.999844 -8.957560 53.524695 -63.191890 -30.814836 -3.672409 2.492252 0.679490 0.234860 -0.338480 0.389020 14.098549 -0.514310 4.766452 15.149324 -15.635758 -7.607800 -132.245203 53.310261 -105.972948 1.663264 -1.724859 -0.480070 0.463220 0.018420 -0.379730 
1.537730 16.106010 -0.383250 -16.614109 -24.332053 -0.912566 -15.001303 12.355283 1.191130 6.204366 -0.655726 -12.810270 2.975672 5.019467 23.257438 -0.805043 4.614712 3.237750 0.564280 -0.059530 0.343040 18.768998 -7.970416 6.839061 -20.708469 17.789936 -50.675870 32.580804 -52.840426 86.648865 -4.243988 -19.165484 -0.623082 0.161170 0.442210 0.126630 -4.835074 -2.280471 -8.558910 24.054302 -6.981653 28.803457 -9.245601 -1.709727 -1.397181 1.842707 -9.363038 -6.287527 -17.859202 11.330797 28.469391 0.612780 2.474460 -8.216650 -19.597730 6.918506 -1.664622 -20.446636 15.227861 -9.414949 43.398086 -61.177931 -24.219006 -3.667798 2.713744 0.688540 0.216850 -0.298300 0.380480 14.773753 -1.584922 4.642799 18.887053 -15.639396 -8.218492 -133.773400 54.322470 -110.631351 1.689651 -1.788808 -0.443420 0.414640 -0.011400 -0.391860 
1.481420 16.038940 -0.341220 -14.330399 -25.579540 0.366949 -14.983212 12.402032 1.483297 4.414181 -1.221552 -14.495950 2.096354 5.013735 23.267901 -0.797552 4.492812 3.263039 0.568780 -0.025160 0.345470 18.727893 -8.355093 6.300503 -18.479178 15.813537 -43.429347 29.122362 -48.039604 84.847320 -3.958568 -18.344735 -0.517748 0.177040 0.446850 0.145720 -4.770963 -2.250163 -8.432835 20.735536 -5.510642 24.015429 -8.103352 -1.930877 -0.662101 1.506759 -8.236753 -5.625448 -15.823617 11.687284 29.739506 -0.163270 4.324970 -6.255250 -19.672785 7.801384 -1.954929 -22.582720 14.412806 -9.898232 36.501994 -59.336942 -19.880211 -3.721820 2.868218 0.629000 0.262620 -0.305580 0.381220 15.549035 -3.468616 4.102052 23.057727 -15.191064 -8.402294 -133.854554 56.785608 -114.688679 1.689056 -1.854532 -0.416580 0.374950 -0.028120 -0.384220 
1.415820 15.989460 -0.326890 -11.590980 -28.053070 0.990532 -15.016811 12.522825 1.804672 2.540546 -1.725961 -15.847053 1.227047 5.158045 23.837398 -0.858495 4.582296 3.235279 0.577900 -0.025330 0.354290 18.642711 -8.763652 5.658310 -16.112557 14.177700 -36.726051 26.322153 -41.799532 80.638301 -3.555622 -17.098216 -0.321120 0.217930 0.500860 0.158360 -4.574263 -2.295609 -8.233879 16.250908 -3.917475 20.117871 -6.626136 -1.788224 0.359436 0.871100 -7.712086 -4.891338 -14.850959 12.542492 29.557543 -0.104940 5.583800 -5.406960 -19.740532 8.814093 -2.137450 -25.533468 13.836302 -10.342037 31.630676 -56.037526 -16.400293 -3.797901 2.912333 0.624020 0.314830 -0.337310 0.390900 17.004731 -4.722205 3.363154 25.780504 -14.685039 -8.736162 -137.507700 59.916094 -124.702815 1.616249 -2.014786 -0.458840 0.403960 -0.014360 -0.400880 
1.365340 15.969830 -0.315820 -9.764729 -32.310161 0.893193 -15.019513 12.745130 2.064837 1.868101 -1.684989 -15.444055 -0.528858 5.585610 23.168847 -0.825077 4.604877 3.225470 0.600440 0.022310 0.361230 18.568206 -9.307119 4.949917 -13.212674 13.156608 -29.797131 22.255137 -34.196479 75.940824 -3.077084 -15.486007 0.002131 0.243040 0.501070 0.148210 -4.446961 -2.173093 -7.946272 13.839871 -2.703403 17.592001 -6.357314 -1.212623 1.182158 0.554844 -8.100548 -4.644772 -15.831911 13.839946 30.065091 0.103150 6.559760 -4.731230 -20.621102 9.282251 -2.064684 -29.216674 14.182429 -11.379397 30.409818 -52.790898 -14.915265 -3.802754 2.909022 0.599200 0.319630 -0.333410 0.403480 18.453890 -4.595900 3.135481 27.601710 -14.935914 -9.826301 -144.816001 64.490585 -140.240385 1.548805 -2.217038 -0.446420 0.407420 -0.038070 -0.388020 
1.326730 15.941930 -0.306100 -8.723239 -36.549159 1.774910 -14.969140 12.891663 2.314293 1.412121 -1.864328 -16.035771 -1.831176 5.880296 22.963320 -0.828856 4.686833 3.203249 0.583320 0.012260 0.326170 18.556591 -9.960228 4.184372 -10.202670 11.395492 -23.626802 17.348691 -26.242327 69.617415 -2.461277 -13.494457 0.453037 0.259370 0.569390 0.158450 -4.510710 -1.766787 -7.521165 13.348007 -2.057216 14.578391 -7.213905 -0.889013 1.304480 0.187902 -8.969274 -4.069197 -17.203012 15.420015 28.386875 0.638500 7.341870 -3.592810 -21.754960 10.144141 -2.034156 -32.497852 14.924233 -12.109133 29.365807 -51.180059 -14.105641 -3.876025 2.924739 0.552850 0.370070 -0.378420 0.410920 20.064554 -4.729677 2.644126 29.197509 -14.968188 -11.188846 -158.124973 69.626559 -161.541887 1.399311 -2.341141 -0.459500 0.424950 -0.012610 -0.370120 
1.298410 15.908030 -0.314100 -8.018076 -40.541377 3.001334 -14.919024 12.966101 2.584130 0.572686 -2.295651 -17.539108 -2.538064 6.005911 23.313722 -0.859239 4.757651 3.200759 0.564320 0.007460 0.281250 18.555583 -10.621224 3.443842 -7.340113 8.914498 -17.667061 12.416703 -19.115468 61.590948 -1.813026 -11.325331 1.036540 0.293200 0.670240 0.161720 -4.594913 -1.249490 -7.060276 13.114536 -1.055011 11.474941 -8.117613 -0.213997 1.458709 0.013127 -9.330268 -3.100418 -17.369889 16.652851 26.606287 1.126890 8.274540 -2.262850 -23.220596 10.968017 -2.315818 -34.981070 14.297625 -12.249635 26.982546 -50.119202 -12.887622 -3.969136 2.947126 0.497260 0.448230 -0.442250 0.435840 21.564687 -5.251989 1.967292 31.131272 -14.959578 -13.008598 -179.291156 74.734955 170.800223 1.224789 -2.232455 -0.495920 0.465360 0.008560 -0.351200 
